<svg xmlns="http://www.w3.org/2000/svg" version="1.1" xmlns:xlink="http://www.w3.org/1999/xlink" xmlns:svgjs="http://svgjs.dev/svgjs" width="128" height="128" viewBox="0 0 128 128"><g transform="matrix(0.8046875,0,0,0.8046875,12.612792253521128,12.612792253521128)"><svg viewBox="0 0 142 142" data-background-color="#bb84e8" preserveAspectRatio="xMidYMid meet" height="128" width="128" xmlns="http://www.w3.org/2000/svg" xmlns:xlink="http://www.w3.org/1999/xlink"><g id="tight-bounds" transform="matrix(1,0,0,1,-0.15550000000000352,-0.15550000000000352)"><svg viewBox="0 0 142.31066447748242 142.31066447748242" height="142.31066447748242" width="142.31066447748242"><g><svg></svg></g><g><svg viewBox="0 0 142.31066447748242 142.31066447748242" height="142.31066447748242" width="142.31066447748242"><g><path d="M0 71.155c0-39.298 31.857-71.155 71.155-71.155 39.298 0 71.155 31.857 71.156 71.155 0 39.298-31.857 71.155-71.156 71.156-39.298 0-71.155-31.857-71.155-71.156zM71.155 134.886c35.197 0 63.731-28.533 63.731-63.731 0-35.197-28.533-63.731-63.731-63.73-35.197 0-63.731 28.533-63.73 63.73 0 35.197 28.533 63.731 63.73 63.731z" data-fill-palette-color="tertiary" fill="#915eff" stroke="transparent"></path><ellipse rx="68.30911894919156" ry="68.30911894919156" cx="71.15533223874121" cy="71.15533223874121" fill="#915eff" stroke="transparent" stroke-width="0" fill-opacity="1" data-fill-palette-color="tertiary"></ellipse></g><g transform="matrix(1,0,0,1,33.986408284650324,29.989108276746492)"><svg viewBox="0 0 74.33784790818177 82.33244792398943" height="82.33244792398943" width="74.33784790818177"><g><svg viewBox="0 0 74.33784790818177 82.33244792398943" height="82.33244792398943" width="74.33784790818177"><g><svg viewBox="0 0 74.33784790818177 82.33244792398943" height="82.33244792398943" width="74.33784790818177"><g><svg viewBox="0 0 74.33784790818177 82.33244792398943" height="82.33244792398943" width="74.33784790818177"><g><svg viewBox="0 0 74.33784790818177 82.33244792398943" height="82.33244792398943" width="74.33784790818177"><g transform="matrix(1,0,0,1,0,0)"><svg width="74.33784790818177" viewBox="1.5 -34.5 31.15 34.5" height="82.33244792398943" data-palette-color="#f3f3f3"><path d="M9.65-18.85L9.65-18.85 9.65-5.7Q11.5-5 12.4-3.85L12.4-3.85 11.9 0 2.1 0 1.6-3.85Q2.5-5 4.35-5.7L4.35-5.7 4.35-28.8Q2.3-29.55 1.5-30.65L1.5-30.65 2-34.5 12.3-34.5 22.25-15.1Q23.35-13 24.4-9.5L24.4-9.5 24.75-8.3 25.3-8.5Q24.6-12.85 24.6-15.8L24.6-15.8 24.6-28.75Q22.8-29.45 21.85-30.65L21.85-30.65 22.35-34.5 32.15-34.5 32.65-30.65Q31.7-29.45 29.9-28.75L29.9-28.75 29.9 0 22.05 0 12-19.55Q10.9-21.65 9.85-25.2L9.85-25.2 9.5-26.35 8.95-26.15Q9.65-21.8 9.65-18.85Z" opacity="1" transform="matrix(1,0,0,1,0,0)" fill="#f3f3f3" class="undefined-text-0" data-fill-palette-color="quaternary" id="text-0"></path></svg></g></svg></g></svg></g></svg></g><g></g></svg></g></svg></g></svg></g><defs></defs></svg><rect width="142.31066447748242" height="142.31066447748242" fill="none" stroke="none" visibility="hidden"></rect></g></svg></g></svg>